<svg xmlns="http://www.w3.org/2000/svg" version="1.1" xmlns:xlink="http://www.w3.org/1999/xlink" xmlns:svgjs="http://svgjs.dev/svgjs" width="1500" height="1500" viewBox="0 0 1500 1500"><rect width="1500" height="1500" fill="#ede1d1"></rect><g transform="matrix(0.6666666666666666,0,0,0.6666666666666666,249.39393939393938,435.99032258064517)"><svg viewBox="0 0 396 248" data-background-color="#ede1d1" preserveAspectRatio="xMidYMid meet" height="939" width="1500" xmlns="http://www.w3.org/2000/svg" xmlns:xlink="http://www.w3.org/1999/xlink"><g id="tight-bounds" transform="matrix(1,0,0,1,0.2400000000000091,0.4000000000000057)"><svg viewBox="0 0 395.52 247.2" height="247.2" width="395.52"><g><svg></svg></g><g><svg viewBox="0 0 395.52 247.2" height="247.2" width="395.52"><g transform="matrix(1,0,0,1,123.4687931087194,47.215199999999996)"><svg viewBox="0 0 148.5824137825612 152.7696" height="152.7696" width="148.5824137825612"><g><svg viewBox="0 0 244.43135999999998 251.31965583290793" height="152.7696" width="148.5824137825612"><g transform="matrix(1,0,0,1,0,165.217918667585)"><svg viewBox="0 0 244.43135999999998 86.10173716532293" height="86.10173716532293" width="244.43135999999998"><g id="textblocktransform"><svg viewBox="0 0 244.43135999999998 86.10173716532293" height="86.10173716532293" width="244.43135999999998" id="textblock"><g><svg viewBox="0 0 244.43135999999998 59.118594346940654" height="59.118594346940654" width="244.43135999999998"><g transform="matrix(1,0,0,1,0,0)"><svg width="244.43135999999998" viewBox="-1.2 -31.86 134.04361702127656 32.42" height="59.118594346940654" data-palette-color="#6a704c"><path d="M11.5-17.94L20.19 0 16.09 0 8.79-15.6 4.64-11.84 2.15 0-1.2 0 5.54-31.86 8.91-31.86 5.59-16.36 22.56-31.86 26.95-31.86 11.5-17.94ZM45.29-31.86L44.33-27.29 39.79-27.29 40.74-31.86 45.29-31.86ZM43.7-2.86L43.09 0 29.44 0 30.05-2.86 35.2-2.86 38.79-19.9 33.64-19.9 34.25-22.75 42.75-22.75 38.55-2.86 43.7-2.86ZM78.39-16.36L74.95 0 71.58 0 75.04-16.36Q75.43-18.31 74.98-19.38 74.53-20.46 73.24-20.46L73.24-20.46Q71.33-20.46 70.01-18.46 68.7-16.46 67.94-12.84L67.94-12.84 65.23 0 61.88 0 65.33-16.36Q65.74-18.31 65.27-19.38 64.79-20.46 63.5-20.46L63.5-20.46Q62.28-20.46 61.43-19.75 60.59-19.04 59.97-17.94 59.35-16.85 58.94-15.5 58.54-14.16 58.25-12.84L58.25-12.84 55.54 0 52.19 0 56.98-22.75 60.35-22.75 59.64-19.46Q61.54-23.29 65.03-23.29L65.03-23.29Q68.38-23.29 68.84-19.95L68.84-19.95Q71.24-23.29 74.29-23.29L74.29-23.29Q77.19-23.29 78.17-21.57 79.15-19.85 78.39-16.36L78.39-16.36ZM101.34-7.86L103.97-7.25Q102.82-3.66 99.96-1.55 97.09 0.56 93.43 0.56L93.43 0.56Q91.42 0.56 89.92-0.1 88.42-0.76 87.5-1.93 86.59-3.1 86.28-4.75 85.98-6.4 86.37-8.35L86.37-8.35 88.84-19.9 83.68-19.9 84.27-22.75 89.42-22.75 91.37-31.86 94.72-31.86 92.77-22.75 102.48-22.75 101.87-19.9 92.18-19.9 89.74-8.35Q89.47-7.1 89.63-6.01 89.79-4.91 90.34-4.08 90.89-3.25 91.8-2.77 92.72-2.29 94.04-2.29L94.04-2.29Q96.53-2.29 98.53-3.85 100.53-5.4 101.34-7.86L101.34-7.86ZM132.51-11.3L132.51-11.3Q131.92-8.64 130.62-6.47 129.31-4.3 127.42-2.75 125.53-1.2 123.12-0.32 120.72 0.56 118.01 0.56L118.01 0.56Q115.37 0.56 113.37-0.32 111.37-1.2 110.12-2.75 108.88-4.3 108.47-6.47 108.07-8.64 108.68-11.3L108.68-11.3Q109.22-13.89 110.55-16.13 111.88-18.36 113.77-19.93 115.66-21.51 118.07-22.4 120.47-23.29 123.11-23.29L123.11-23.29Q125.82-23.29 127.82-22.4 129.82-21.51 131.07-19.93 132.31-18.36 132.69-16.13 133.07-13.89 132.51-11.3ZM129.16-11.3L129.16-11.3Q129.58-13.26 129.35-14.9 129.12-16.55 128.24-17.8 127.36-19.04 125.92-19.75 124.48-20.46 122.48-20.46L122.48-20.46Q120.47-20.46 118.72-19.75 116.96-19.04 115.62-17.8 114.27-16.55 113.34-14.9 112.42-13.26 112.03-11.3L112.03-11.3Q111.56-9.35 111.79-7.7 112.03-6.05 112.87-4.86 113.71-3.66 115.16-2.98 116.62-2.29 118.62-2.29L118.62-2.29Q120.62-2.29 122.37-2.98 124.11-3.66 125.49-4.86 126.87-6.05 127.8-7.7 128.73-9.35 129.16-11.3Z" opacity="1" transform="matrix(1,0,0,1,0,0)" fill="#6a704c" class="wordmark-text-0" data-fill-palette-color="primary" id="text-0"></path></svg></g></svg></g><g transform="matrix(1,0,0,1,46.68638976,73.07507562598902)"><svg viewBox="0 0 151.05858048 13.026661539333908" height="13.026661539333908" width="151.05858048"><g transform="matrix(1,0,0,1,0,0)"><svg width="151.05858048" viewBox="2.33 -33.8 491.69 42.4" height="13.026661539333908" data-palette-color="#6a704c"><path d="M12.7 0.55L12.7 0.55Q7.45 0.55 4.89-2.29 2.33-5.13 2.33-10.33L2.33-10.33 2.33-14.13Q2.33-19.35 4.9-22.16 7.48-24.98 12.7-24.98L12.7-24.98Q14.25-24.98 15.53-24.69 16.8-24.4 17.81-23.94 18.82-23.48 19.53-22.98L19.53-22.98 19.88-19.45Q18.7-20.35 17.09-20.98 15.48-21.6 13.3-21.6L13.3-21.6Q9.8-21.6 8.09-19.66 6.38-17.73 6.38-14.03L6.38-14.03 6.38-10.43Q6.38-6.8 8.09-4.85 9.8-2.9 13.3-2.9L13.3-2.9Q15.55-2.9 17.19-3.53 18.82-4.15 20.1-5.05L20.1-5.05 19.73-1.48Q18.63-0.73 16.85-0.09 15.08 0.55 12.7 0.55ZM45.37 0L41.32 0 41.32-15.18Q41.32-17.15 40.79-18.57 40.25-20 39.04-20.79 37.82-21.58 35.72-21.58L35.72-21.58Q33.8-21.58 32.4-20.85 31-20.13 30.14-18.89 29.27-17.65 28.92-16.07L28.92-16.07 28.02-18.95 29.07-18.95Q29.45-20.6 30.45-21.96 31.45-23.33 33.14-24.14 34.82-24.95 37.25-24.95L37.25-24.95Q40.15-24.95 41.94-23.85 43.72-22.75 44.55-20.69 45.37-18.63 45.37-15.63L45.37-15.63 45.37 0ZM29.05 0L25 0 25-33.13 29.02-33.13 29.02-25.18 28.9-18.18 29.05-17.85 29.05 0ZM61.35 0.63L61.35 0.63Q56.1 0.63 53.38-2.21 50.67-5.05 50.67-10.38L50.67-10.38 50.67-14.1Q50.67-19.4 53.4-22.23 56.12-25.05 61.35-25.05L61.35-25.05Q66.59-25.05 69.31-22.23 72.02-19.4 72.02-14.1L72.02-14.1 72.02-10.38Q72.02-5.05 69.31-2.21 66.59 0.63 61.35 0.63ZM61.35-2.68L61.35-2.68Q64.59-2.68 66.28-4.6 67.97-6.53 67.97-10.15L67.97-10.15 67.97-14.33Q67.97-17.93 66.28-19.84 64.59-21.75 61.35-21.75L61.35-21.75Q58.12-21.75 56.42-19.84 54.72-17.93 54.72-14.33L54.72-14.33 54.72-10.15Q54.72-6.53 56.42-4.6 58.12-2.68 61.35-2.68ZM85.27 0.55L85.27 0.55Q82.32 0.55 80.12-0.09 77.92-0.73 76.47-1.48L76.47-1.48 76.09-5.23Q77.92-4.28 80.11-3.58 82.29-2.88 85.07-2.88L85.07-2.88Q87.89-2.88 89.32-3.78 90.74-4.67 90.74-6.45L90.74-6.45 90.74-6.73Q90.74-7.88 90.2-8.63 89.67-9.38 88.27-9.95 86.87-10.53 84.29-11.1L84.29-11.1Q81.22-11.78 79.44-12.69 77.67-13.6 76.91-14.95 76.14-16.3 76.14-18.25L76.14-18.25 76.14-18.48Q76.14-21.68 78.37-23.33 80.59-24.98 85.07-24.98L85.07-24.98Q87.94-24.98 90.06-24.33 92.17-23.68 93.52-22.88L93.52-22.88 93.89-19.45Q92.27-20.4 90.17-21.03 88.07-21.65 85.44-21.65L85.44-21.65Q83.54-21.65 82.37-21.26 81.19-20.88 80.67-20.16 80.14-19.45 80.14-18.45L80.14-18.45 80.14-18.25Q80.14-17.15 80.67-16.39 81.19-15.63 82.56-15.06 83.92-14.5 86.34-13.98L86.34-13.98Q89.47-13.35 91.31-12.48 93.14-11.6 93.94-10.26 94.74-8.93 94.74-6.83L94.74-6.83 94.74-6.4Q94.74-2.95 92.34-1.2 89.94 0.55 85.27 0.55ZM109.94 0.55L109.94 0.55Q104.36 0.55 101.54-2.18 98.72-4.9 98.72-9.98L98.72-9.98 98.72-14.33Q98.72-19.48 101.34-22.26 103.97-25.05 109.02-25.05L109.02-25.05Q112.42-25.05 114.69-23.79 116.97-22.53 118.12-20.2 119.27-17.88 119.27-14.65L119.27-14.65 119.27-13.75Q119.27-12.95 119.2-12.15 119.14-11.35 119.04-10.58L119.04-10.58 115.31-10.58Q115.37-11.78 115.38-12.85 115.39-13.93 115.39-14.83L115.39-14.83Q115.39-17.05 114.68-18.59 113.97-20.13 112.55-20.94 111.14-21.75 109.02-21.75L109.02-21.75Q105.86-21.75 104.29-19.93 102.72-18.1 102.72-14.7L102.72-14.7 102.72-12.38 102.74-11.88 102.74-9.55Q102.74-8.03 103.19-6.8 103.64-5.58 104.6-4.69 105.56-3.8 107.05-3.34 108.54-2.88 110.59-2.88L110.59-2.88Q112.97-2.88 115.02-3.5 117.06-4.13 118.87-5.2L118.87-5.2 118.49-1.7Q116.87-0.68 114.72-0.06 112.56 0.55 109.94 0.55ZM118.19-10.58L100.84-10.58 100.84-13.63 118.19-13.63 118.19-10.58ZM146.56 0L140.34 0 134.34-24.4 138.51-24.4 143.31-2.95 143.78-2.95 148.78-23.75 154.51-23.75 159.51-2.95 159.96-2.95 164.81-24.4 168.96-24.4 162.96 0 156.76 0 152.63-17.35 151.84-20.83 151.46-20.83 150.69-17.35 146.56 0ZM194.03 0L189.98 0 189.98-15.18Q189.98-17.15 189.45-18.57 188.91-20 187.7-20.79 186.48-21.58 184.38-21.58L184.38-21.58Q182.46-21.58 181.06-20.85 179.66-20.13 178.8-18.89 177.93-17.65 177.58-16.07L177.58-16.07 176.68-18.95 177.73-18.95Q178.11-20.6 179.11-21.96 180.11-23.33 181.8-24.14 183.48-24.95 185.91-24.95L185.91-24.95Q188.81-24.95 190.6-23.85 192.38-22.75 193.21-20.69 194.03-18.63 194.03-15.63L194.03-15.63 194.03 0ZM177.71 0L173.66 0 173.66-33.13 177.68-33.13 177.68-25.18 177.56-18.18 177.71-17.85 177.71 0ZM218.81 0L214.78 0 214.96-5.93 214.81-6.55 214.81-14.33 214.83-15.75Q214.83-18.73 213.32-20.15 211.81-21.58 208.53-21.58L208.53-21.58Q205.91-21.58 203.72-20.83 201.53-20.08 199.83-19.07L199.83-19.07 200.21-22.53Q201.16-23.1 202.47-23.66 203.78-24.23 205.47-24.6 207.16-24.98 209.18-24.98L209.18-24.98Q211.81-24.98 213.64-24.34 215.48-23.7 216.62-22.5 217.76-21.3 218.28-19.6 218.81-17.9 218.81-15.8L218.81-15.8 218.81 0ZM206.38 0.53L206.38 0.53Q202.76 0.53 200.82-1.24 198.88-3 198.88-6.28L198.88-6.28 198.88-7Q198.88-10.38 200.97-12.04 203.06-13.7 207.61-14.35L207.61-14.35 215.33-15.45 215.56-12.5 208.11-11.43Q205.31-11.03 204.11-10.06 202.91-9.1 202.91-7.23L202.91-7.23 202.91-6.83Q202.91-4.9 204.09-3.88 205.28-2.85 207.66-2.85L207.66-2.85Q209.76-2.85 211.26-3.58 212.76-4.3 213.68-5.53 214.61-6.75 214.93-8.25L214.93-8.25 215.56-5.5 214.78-5.5Q214.43-3.9 213.47-2.53 212.51-1.15 210.78-0.31 209.06 0.53 206.38 0.53ZM233.88 0.5L233.88 0.5Q231.05 0.5 229.33-0.35 227.6-1.2 226.83-2.93 226.05-4.65 226.05-7.23L226.05-7.23 226.05-22.63 230.05-22.63 230.05-7.7Q230.05-5.3 231.15-4.16 232.25-3.03 234.85-3.03L234.85-3.03Q236.33-3.03 237.69-3.35 239.05-3.68 240.25-4.28L240.25-4.28 239.88-0.8Q238.7-0.2 237.13 0.15 235.55 0.5 233.88 0.5ZM239.63-20.8L222.05-20.8 222.05-24.05 240-24.05 239.63-20.8ZM229.95-23.65L226.08-23.65 226.05-30.5 230.13-31.03 229.95-23.65ZM247.95-33.13L247.55-21 244.35-21 243.95-33.13 247.95-33.13ZM261.35 0.55L261.35 0.55Q258.4 0.55 256.2-0.09 254-0.73 252.55-1.48L252.55-1.48 252.17-5.23Q254-4.28 256.19-3.58 258.37-2.88 261.15-2.88L261.15-2.88Q263.97-2.88 265.4-3.78 266.82-4.67 266.82-6.45L266.82-6.45 266.82-6.73Q266.82-7.88 266.29-8.63 265.75-9.38 264.35-9.95 262.95-10.53 260.37-11.1L260.37-11.1Q257.3-11.78 255.52-12.69 253.75-13.6 252.99-14.95 252.22-16.3 252.22-18.25L252.22-18.25 252.22-18.48Q252.22-21.68 254.45-23.33 256.67-24.98 261.15-24.98L261.15-24.98Q264.02-24.98 266.14-24.33 268.25-23.68 269.6-22.88L269.6-22.88 269.97-19.45Q268.35-20.4 266.25-21.03 264.15-21.65 261.52-21.65L261.52-21.65Q259.62-21.65 258.45-21.26 257.27-20.88 256.75-20.16 256.22-19.45 256.22-18.45L256.22-18.45 256.22-18.25Q256.22-17.15 256.75-16.39 257.27-15.63 258.64-15.06 260-14.5 262.42-13.98L262.42-13.98Q265.55-13.35 267.39-12.48 269.22-11.6 270.02-10.26 270.82-8.93 270.82-6.83L270.82-6.83 270.82-6.4Q270.82-2.95 268.42-1.2 266.02 0.55 261.35 0.55ZM295.54-33.8L295.54-33.8Q297.42-33.8 298.91-33.46 300.39-33.13 301.64-32.63L301.64-32.63 302.04-29.45Q300.82-29.9 299.58-30.16 298.34-30.43 296.79-30.43L296.79-30.43Q294.92-30.43 293.78-29.94 292.64-29.45 292.16-28.56 291.67-27.68 291.67-26.43L291.67-26.43 291.67-26.3Q291.67-25.43 291.89-24.64 292.12-23.85 292.39-23.2L292.39-23.2 289.67-23.1 289.67-23.6Q288.89-24.2 288.31-25.28 287.72-26.35 287.72-27.78L287.72-27.78 287.72-27.9Q287.72-30.58 289.62-32.19 291.52-33.8 295.54-33.8ZM292.57 0L288.54 0 288.54-22.23 292.57-22.23 292.57 0ZM301.57-20.25L284.52-20.25 284.52-23.48 290.09-23.45 291.74-23.48 301.94-23.48 301.57-20.25ZM310.24 0L306.19 0 306.19-24.4 310.24-24.4 310.24 0ZM308.21-28.4L308.21-28.4Q306.96-28.4 306.35-29.06 305.74-29.73 305.74-30.88L305.74-30.88 305.74-31Q305.74-32.18 306.35-32.83 306.96-33.48 308.21-33.48L308.21-33.48Q309.46-33.48 310.09-32.83 310.71-32.18 310.71-31L310.71-31 310.71-30.88Q310.71-29.7 310.09-29.05 309.46-28.4 308.21-28.4ZM325.81 0.5L325.81 0.5Q322.99 0.5 321.26-0.35 319.54-1.2 318.76-2.93 317.99-4.65 317.99-7.23L317.99-7.23 317.99-22.63 321.99-22.63 321.99-7.7Q321.99-5.3 323.09-4.16 324.19-3.03 326.79-3.03L326.79-3.03Q328.26-3.03 329.63-3.35 330.99-3.68 332.19-4.28L332.19-4.28 331.81-0.8Q330.64-0.2 329.06 0.15 327.49 0.5 325.81 0.5ZM331.56-20.8L313.99-20.8 313.99-24.05 331.94-24.05 331.56-20.8ZM321.89-23.65L318.01-23.65 317.99-30.5 322.06-31.03 321.89-23.65ZM356.48-33.8L356.48-33.8Q358.36-33.8 359.84-33.46 361.33-33.13 362.58-32.63L362.58-32.63 362.98-29.45Q361.76-29.9 360.52-30.16 359.28-30.43 357.73-30.43L357.73-30.43Q355.86-30.43 354.72-29.94 353.58-29.45 353.09-28.56 352.61-27.68 352.61-26.43L352.61-26.43 352.61-26.3Q352.61-25.43 352.83-24.64 353.06-23.85 353.33-23.2L353.33-23.2 350.61-23.1 350.61-23.6Q349.83-24.2 349.24-25.28 348.66-26.35 348.66-27.78L348.66-27.78 348.66-27.9Q348.66-30.58 350.56-32.19 352.46-33.8 356.48-33.8ZM353.51 0L349.48 0 349.48-22.23 353.51-22.23 353.51 0ZM362.51-20.25L345.46-20.25 345.46-23.48 351.03-23.45 352.68-23.48 362.88-23.48 362.51-20.25ZM376.75 0.63L376.75 0.63Q371.5 0.63 368.79-2.21 366.08-5.05 366.08-10.38L366.08-10.38 366.08-14.1Q366.08-19.4 368.8-22.23 371.53-25.05 376.75-25.05L376.75-25.05Q382-25.05 384.72-22.23 387.43-19.4 387.43-14.1L387.43-14.1 387.43-10.38Q387.43-5.05 384.72-2.21 382 0.63 376.75 0.63ZM376.75-2.68L376.75-2.68Q380-2.68 381.69-4.6 383.38-6.53 383.38-10.15L383.38-10.15 383.38-14.33Q383.38-17.93 381.69-19.84 380-21.75 376.75-21.75L376.75-21.75Q373.53-21.75 371.83-19.84 370.13-17.93 370.13-14.33L370.13-14.33 370.13-10.15Q370.13-6.53 371.83-4.6 373.53-2.68 376.75-2.68ZM396.9-14.93L396.9-14.93 395.98-18.05 396.98-18.1Q397.78-21.2 399.73-22.99 401.68-24.78 404.9-24.78L404.9-24.78Q405.7-24.78 406.34-24.65 406.98-24.53 407.48-24.35L407.48-24.35 407.73-20.43Q407.1-20.63 406.34-20.75 405.58-20.88 404.65-20.88L404.65-20.88Q401.9-20.88 399.86-19.35 397.83-17.82 396.9-14.93ZM397.1 0L393.05 0 393.05-24.4 397-24.4 396.8-17.2 397.1-16.9 397.1 0ZM431.92-3.78L434.25-3.78 432.12-2.85 439.42-24.4 443.6-24.4 432.12 8.6 428.02 8.6 431.87-2.55 433.65-1 429.05-1 421.07-24.4 425.27-24.4 431.92-3.78ZM457.67 0.63L457.67 0.63Q452.42 0.63 449.71-2.21 446.99-5.05 446.99-10.38L446.99-10.38 446.99-14.1Q446.99-19.4 449.72-22.23 452.44-25.05 457.67-25.05L457.67-25.05Q462.92-25.05 465.63-22.23 468.34-19.4 468.34-14.1L468.34-14.1 468.34-10.38Q468.34-5.05 465.63-2.21 462.92 0.63 457.67 0.63ZM457.67-2.68L457.67-2.68Q460.92-2.68 462.61-4.6 464.29-6.53 464.29-10.15L464.29-10.15 464.29-14.33Q464.29-17.93 462.61-19.84 460.92-21.75 457.67-21.75L457.67-21.75Q454.44-21.75 452.74-19.84 451.04-17.93 451.04-14.33L451.04-14.33 451.04-10.15Q451.04-6.53 452.74-4.6 454.44-2.68 457.67-2.68ZM473.67-24.4L477.69-24.4 477.69-9.22Q477.69-7.3 478.23-5.86 478.77-4.42 479.99-3.64 481.22-2.85 483.29-2.85L483.29-2.85Q485.24-2.85 486.64-3.56 488.04-4.28 488.93-5.53 489.82-6.78 490.14-8.35L490.14-8.35 490.87-5.48 489.99-5.48Q489.62-3.83 488.62-2.46 487.62-1.1 485.93-0.29 484.24 0.53 481.77 0.53L481.77 0.53Q478.89 0.53 477.1-0.56 475.32-1.65 474.49-3.74 473.67-5.83 473.67-8.78L473.67-8.78 473.67-24.4ZM489.97-24.4L494.02-24.4 494.02 0 489.97 0 490.14-5.85 489.97-6.1 489.97-24.4Z" opacity="1" transform="matrix(1,0,0,1,0,0)" fill="#6a704c" class="slogan-text-1" data-fill-palette-color="secondary" id="text-1"></path></svg></g></svg></g></svg></g></svg></g><g transform="matrix(1,0,0,1,53.563201945255855,0)"><svg viewBox="0 0 137.30495610948827 137.30495610948827" height="137.30495610948827" width="137.30495610948827"><g><svg></svg></g><g id="icon-0"><svg viewBox="0 0 137.30495610948827 137.30495610948827" height="137.30495610948827" width="137.30495610948827"><g><path d="M0 68.652c0-37.916 30.737-68.652 68.652-68.652 37.916 0 68.652 30.737 68.653 68.652 0 37.916-30.737 68.652-68.653 68.653-37.916 0-68.652-30.737-68.652-68.653zM68.652 131.974c34.971 0 63.321-28.35 63.322-63.322 0-34.971-28.35-63.321-63.322-63.321-34.971 0-63.321 28.35-63.321 63.321 0 34.971 28.35 63.321 63.321 63.322z" data-fill-palette-color="accent" fill="#412e27" stroke="transparent"></path><ellipse rx="67.96595327419669" ry="67.96595327419669" cx="68.65247805474414" cy="68.65247805474414" fill="#412e27" stroke="transparent" stroke-width="0" fill-opacity="1" data-fill-palette-color="accent"></ellipse></g><g transform="matrix(1,0,0,1,31.847297991370475,31.847297991370475)"><svg viewBox="0 0 73.61036012674732 73.61036012674732" height="73.61036012674732" width="73.61036012674732"><g><svg xmlns="http://www.w3.org/2000/svg" xmlns:xlink="http://www.w3.org/1999/xlink" version="1.1" x="0" y="0" viewBox="7 7 50 50" enable-background="new 0 0 64 64" xml:space="preserve" height="73.61036012674732" width="73.61036012674732" class="icon-dxe-0" data-fill-palette-color="quaternary" id="dxe-0"><g fill="#ede1d1" data-fill-palette-color="quaternary"><g fill="#ede1d1" data-fill-palette-color="quaternary"><path d="M32 7C18.215 7 7 18.215 7 32S18.215 57 32 57 57 45.785 57 32 45.785 7 32 7M32 55C19.318 55 9 44.683 9 32S19.318 9 32 9 55 19.318 55 32 44.683 55 32 55" fill="#ede1d1" data-fill-palette-color="quaternary"></path><path d="M42.447 19.105A1 1 0 0 0 41.105 19.552L29.725 42.311 22.706 35.292A0.999 0.999 0 1 0 21.292 36.706L29.292 44.706A0.997 0.997 0 0 0 30.894 44.447L42.894 20.447A1 1 0 0 0 42.447 19.105" fill="#ede1d1" data-fill-palette-color="quaternary"></path></g></g></svg></g></svg></g></svg></g></svg></g><g></g></svg></g></svg></g><g><path d="M156.73 38.731A74.291 74.291 0 0 1 238.79 38.731L235.549 38.731A71.05 71.05 0 0 0 159.971 38.731L156.73 38.731M156.73 208.469A74.291 74.291 0 0 0 238.79 208.469L235.549 208.469A71.05 71.05 0 0 1 159.971 208.469L156.73 208.469" fill="#6a704c" stroke="transparent" data-fill-palette-color="tertiary"></path></g></svg></g><defs></defs></svg><rect width="395.52" height="247.2" fill="none" stroke="none" visibility="hidden"></rect></g></svg></g></svg>